<?xml version="1.0" encoding="UTF-8" standalone="yes"?>
<svg version="1.2" baseProfile="tiny-ps" viewBox="0 0 300 300" xmlns="http://www.w3.org/2000/svg">
  <title>bimi-svg-tiny-12-ps</title>
  <g>
    <g fill="#fcfbfe" transform="matrix(.1 0 0 -.1 0 300)">
      <path d="M0 1500V0h3000v3000H0V1500z"/>
    </g>
    <g fill="#edc2e8" transform="matrix(.1 0 0 -.1 0 300)">
      <path d="M1360 2959c-175-16-331-61-505-144l-110-53-90-63-90-64-100-100-100-100-58-82c-110-155-204-368-241-549-9-39-20-122-26-183l-12-112 12-126 11-125 28-112 29-112 40-96c132-317 368-573 674-733l104-54 119-40 120-40 110-17 110-16 165 5 165 5 75 17c192 42 364 115 531 226l94 63 116 115 115 116 63 94c113 171 186 342 228 541l18 85v390l-19 90c-101 483-427 880-874 1067l-96 40-112 29-112 28-119 10c-130 12-139 12-263 0zm295-100c226-27 418-99 616-230l94-63 100-101 101-100 67-101c107-161 170-315 209-509l20-100 1-145v-145l-16-92c-9-51-31-136-48-190l-31-98-55-108-56-109-57-77c-76-103-187-214-287-288l-81-60-109-55c-169-87-308-127-503-148l-105-12-90 7c-261 20-485 96-697 237l-93 62-100 101-101 100-63 94c-135 203-204 392-232 631l-12 105 7 108c12 204 52 352 146 542l59 120 65 86 65 85 90 86 90 86 84 56c276 183 603 263 922 225zm-947-505c-4-4-45-9-90-13l-83-6V695l95-10c122-12 352-12 455 0l80 10 5 260 5 260 176 3 176 2 164-262 165-263 84-9c106-12 388-13 498-2l82 9v9c0 5-83 139-185 297-102 159-185 291-185 294 0 2 35 25 78 50l79 45 46 51c51 58 82 116 103 194l14 52v201l-15 57c-54 206-201 326-480 390l-90 20-585 4-585 4-7-7zm1039-366 41-27 22-46 22-46 1-72v-72l-17-40c-20-47-50-81-91-103l-30-16-238-4c-130-2-249-1-262 2l-25 6v438l13 6c6 3 127 4 268 3l256-2 40-27z"/>
    </g>
    <g fill="#19d9fa" transform="matrix(.1 0 0 -.1 0 300)">
      <path d="M1275 2946c-219-37-412-113-595-235l-84-56-104-100-104-99-64-86-63-85-55-106-55-105-35-105c-19-57-43-142-53-189l-18-85v-390l23-105c43-191 113-355 223-521l63-94 115-115 116-115 90-60c172-115 355-190 560-231l90-18h360l102 22c196 42 379 121 548 236l90 61 105 105 105 105 61 90c115 168 194 352 236 548l22 102v360l-18 90c-41 205-116 388-231 560l-60 90-115 116-115 115-94 63c-162 107-316 174-501 218l-105 25-180 3-180 4-80-13zm500-101c175-39 348-112 495-210l75-50 116-115 116-115 50-75c103-154 177-328 215-503l22-102v-340l-18-90c-38-184-110-358-214-515l-56-85-111-110-110-111-86-57c-151-100-339-178-510-212l-74-15-130-6-130-7-113 17c-62 9-152 28-200 42l-87 25-120 58-120 58-88 63-87 63-98 101-97 102-50 74c-99 148-172 323-211 500l-16 75-5 146-6 147 13 83c39 268 141 498 312 703l76 92 90 75c198 164 433 269 687 309l60 9 170-4 170-4 70-16zM535 2328c-3-7-4-377-3-823l3-810 190-3c105-2 245 0 313 3l122 7v548l176-2 176-3 172-275 172-275 244-3c135-1 284 1 331 5l87 8-189 294c-104 162-189 297-189 301 0 3 30 20 66 38l66 33 55 52 56 52 33 68 32 68 12 72 13 72-6 80-6 80-21 59c-29 85-60 134-124 194l-56 53-72 34c-94 44-167 63-298 75l-105 10H539l-4-12zm1125-298c20-5 56-23 81-39l46-29 23-46 22-47v-72l1-72-18-43-17-42-41-35-41-35-50-15-50-15h-456v500h465l35-10z"/>
    </g>
    <g fill="#eb42bd" transform="matrix(.1 0 0 -.1 0 300)">
      <path d="M1275 2946c-219-37-412-113-595-235l-84-56-104-100-104-99-64-86-63-85-55-106-55-105-35-105c-19-57-43-142-53-189l-18-85v-390l23-105c43-191 113-355 223-521l63-94 115-115 116-115 90-60c172-115 355-190 560-231l90-18h360l102 22c196 42 379 121 548 236l90 61 105 105 105 105 61 90c115 168 194 352 236 548l22 102v360l-18 90c-41 205-116 388-231 560l-60 90-115 116-115 115-94 63c-162 107-316 174-501 218l-105 25-180 3-180 4-80-13zm500-101c175-39 348-112 495-210l75-50 116-115 116-115 50-75c103-154 177-328 215-503l22-102v-340l-18-90c-38-184-110-358-214-515l-56-85-111-110-110-111-86-57c-151-100-339-178-510-212l-74-15-130-6-130-7-113 17c-62 9-152 28-200 42l-87 25-120 58-120 58-88 63-87 63-98 101-97 102-50 74c-99 148-172 323-211 500l-16 75-5 146-6 147 13 83c39 268 141 498 312 703l76 92 90 75c198 164 433 269 687 309l60 9 170-4 170-4 70-16zM660 1515V690h158c88 0 200 3 250 6l92 7v548l237-3 237-3 172-275 172-275 183-3c101-1 223 1 270 5l87 8-189 294c-104 162-189 297-189 301 0 3 30 20 66 38l66 33 55 52 56 52 33 68 32 68 12 72 13 72-6 80-6 80-21 59c-29 85-60 134-124 194l-56 53-72 34c-94 44-167 63-298 75l-105 10H660v-825zm1172 493 57-26 25-39 25-38 11-50 11-50-6-50-6-50-22-39c-12-22-38-52-57-67l-35-28-58-15-57-15-280-1h-280v501l308-3 307-3 57-27z"/>
    </g>
    <g fill="#9363c4" transform="matrix(.1 0 0 -.1 0 300)">
      <path d="M1320 2949c-170-22-327-71-491-155l-105-54-80-58c-299-219-501-533-574-892l-20-99-6-118-7-118 12-105c57-499 335-907 782-1144l84-45 120-40 120-40 95-17 95-17h300l100 17 100 18 105 34c58 19 150 57 205 85l100 50 90 64 90 64 92 92 92 92 65 91 65 91 51 100 50 100 34 105c19 58 42 150 52 205l17 100v300l-22 112-22 113-35 102c-43 126-115 264-191 371l-58 81-95 95-95 96-90 64-90 63-120 59-120 58-104 31-104 30-114 15-114 15-97-1c-53-1-126-5-162-10zm415-95 90-15 103-34 104-35 100-52c130-66 242-149 348-257l85-87 61-89c109-159 181-328 221-515l18-85v-370l-18-82c-25-118-62-224-117-338l-48-100-62-88-63-87-88-89-89-88-87-63-88-62-100-49c-112-54-217-90-338-116l-82-18h-195l-195 1-95 23c-186 46-332 111-483 214l-89 60-88 86-87 86-60 81c-104 142-191 332-234 510l-19 81-9 114-10 115 10 109 9 110 26 104c125 501 503 880 1006 1005l104 26 94 9 95 9 90-5c50-2 131-11 180-19zM660 1511V687l92 7c50 3 135 6 190 6h98v551l297-3 297-3 172-275 172-275 203 4c112 2 206 5 208 7 2 1-81 133-183 293-102 159-186 293-186 298 0 4 34 25 75 46l75 39 50 55c60 66 85 111 107 196l16 62v90l1 90-13 55c-8 30-29 85-48 121l-34 65-42 42c-23 22-69 57-102 77l-60 36-80 26-80 26-185 4c-102 1-377 4-612 6l-428 2v-824zm1001 530 117-10 52-22 52-22 29-39 28-39 11-56 12-55-7-46c-4-26-15-63-26-83l-18-37-36-30-36-29-42-13c-72-23-433-37-634-25l-123 7v497l63 4c134 7 448 6 558-2z"/>
    </g>
    <g fill="#ce049b" transform="matrix(.1 0 0 -.1 0 300)">
      <path d="M1320 2949c-170-22-327-71-491-155l-105-54-80-58c-299-219-501-533-574-892l-20-99-6-118-7-118 12-105c57-499 335-907 782-1144l84-45 120-40 120-40 95-17 95-17h300l100 17 100 18 105 34c58 19 150 57 205 85l100 50 90 64 90 64 92 92 92 92 65 91 65 91 51 100 50 100 34 105c19 58 42 150 52 205l17 100v300l-22 112-22 113-35 102c-43 126-115 264-191 371l-58 81-95 95-95 96-90 64-90 63-120 59-120 58-104 31-104 30-114 15-114 15-97-1c-53-1-126-5-162-10zm415-95 90-15 103-34 104-35 100-52c130-66 242-149 348-257l85-87 61-89c109-159 181-328 221-515l18-85v-370l-18-82c-25-118-62-224-117-338l-48-100-62-88-63-87-88-89-89-88-87-63-88-62-100-49c-112-54-217-90-338-116l-82-18h-195l-195 1-95 23c-186 46-332 111-483 214l-89 60-88 86-87 86-60 81c-104 142-191 332-234 510l-19 81-9 114-10 115 10 109 9 110 26 104c125 501 503 880 1006 1005l104 26 94 9 95 9 90-5c50-2 131-11 180-19zM660 1515V700h380v550h596l171-272 170-273 206-3c114-1 207 0 207 4 0 3-83 136-185 294-102 159-185 292-185 297 0 4 34 25 75 46l75 39 50 55c60 66 85 111 107 196l16 62v90l1 90-13 55c-8 30-29 85-48 121l-34 65-42 42c-58 56-147 107-242 140l-80 27-612 3-613 3v-816zm1155 507c63-29 102-66 126-117l19-40v-128l-12-41-13-41-40-41-41-41-50-18-49-18-235-5c-129-2-289-1-357 3l-123 7v497l63 4c34 2 197 4 362 3l300-1 50-23z"/>
    </g>
  </g>
</svg>